/* XPM */
static char *_91f1c70f7dd428786769cae01a3dd61uTLnNhGVCoRWpAfu[] = {
/* columns rows colors chars-per-pixel */
"32 32 72 1 ",
"  c black",
". c #A69F6B",
"X c #A89F6D",
"o c #A7A06D",
"O c #A9A26F",
"+ c #ACA572",
"@ c #AFA873",
"# c #B3AC75",
"$ c #B5AE79",
"% c #B6B077",
"& c #B8B177",
"* c #B7B079",
"= c #BBB47B",
"- c #BFB87E",
"; c #C0B77C",
": c #C2B97E",
"> c #BEB781",
", c #BFB880",
"< c #C4BD82",
"1 c #C8BF84",
"2 c #C7C085",
"3 c #CAC186",
"4 c #CDC488",
"5 c #CDC489",
"6 c #CCC589",
"7 c #CEC589",
"8 c #CFC68A",
"9 c #CEC78B",
"0 c #CFC68C",
"q c #CFC88C",
"w c #D1C68B",
"e c #D0C78B",
"r c #D0C78E",
"t c #D1C88C",
"y c #D2C98D",
"u c #D1C88F",
"i c #D3CB8F",
"p c #D4CA8F",
"a c #D3CB91",
"s c #D3C892",
"d c #D5CA91",
"f c #D7CD93",
"g c #D7CF93",
"h c #D4CB94",
"j c #D5CC95",
"k c #D7CE94",
"l c #D8CF95",
"z c #D8CF98",
"x c #DAD196",
"c c #DBD097",
"v c #DAD197",
"b c #D8D199",
"n c #DBD198",
"m c #DBD298",
"M c #DCD399",
"N c #DDD49A",
"B c #DCD29C",
"V c #DCD39C",
"C c #DFD69F",
"Z c #E0D69C",
"A c #E0D59F",
"S c #E2D99F",
"D c #E0D7A0",
"F c #E2D9A0",
"G c #E2D9A1",
"H c #E3DAA3",
"J c #E5DBA4",
"K c #E7DEA7",
"L c #E7DEA8",
"P c #E8DFA9",
"I c #EBE1AB",
"U c #F1E6B1",
/* pixels */
"lZddnn08uqu2442-2;::=1=#-=%$=*$+",
"nZlrrkw5u8e42e2:2::;===#=&$@#@++",
"CBsklNa3ef83e42:2;;;<=-&=-%@>$++",
"nZsdwzw48u833q:222;--2-&:&%*$$@+",
"Ck0krNd5uq33883:1::::2=@>=$$$#+o",
"DCsslNd0kq83181<3::;::&%=-%#$$+O",
"DBrkkz08iq833q3-43::1:=%=**$#$@O",
"HCnknC88f8833e2 2::::::&<>$$>$++",
"HHknNNaqnkq80i3 82<::3-&>=%#$$++",
"DBsklC0qka068u2 31<:<<-====#*$++",
"HBnkNk80 k86831 33=:=<% ==*#=#+O",
"HCknnnas r83a81 133:<<- ==%$*$++",
"HChsCBla k58rw1 3<:=,<& =:$#$$@+",
"HHzknCsr fa3a03 13=:<<- %=$$#$+o",
"JBlnnBa0                ==*$$$+o",
"HBzlbk00v8w83u3 33::<<=&-%$$$$+o",
"IHhgNNs0xfu44u3 23=:=<=&&,%@$$++",
"IJnNSHkkvvuqqp3 83:=<1=%-,%$**#O",
"HHzBZCar fu8uq3 41:::1= -%%$#$+.",
"JCfnCHak uu4eu3 33::12& ,=*%$$+O",
"ICanCCan kuepg3 41::3:= ==*$##+o",
"INhBnvak                <=$$@$@O",
"JChVCCfk fuqyx4283=:<<& ==$*$$@+",
"PCbVCHuvfvf8p431381=3-====$@>$#+",
"LLbvHB0aNgwwka3283--<,=%==%$#*@+",
"UJCCJCaaglf0ua3282;<,<,==<%#+#O.",
"IHaBCCkkNguuui4288-:2,-%=%#$#$+o",
"LJhbHB0aggu4uu2:8:-<>-=%>$#@##+.",
"IDhVHCaavf4uu8<333::,<-&-=##$$+X",
"UDlHZHdrfvquiu3<33;:<,>*=&$#$$@O",
"IHsDCBqsmfqfev8283::=,==>>$#$##O",
"IJfCLn0kxiqeie2148:-2===*>$#&$+."
};
