/* XPM */
static char *_786e90e4b3049dec08e4c0dbf97078axoifz6SklCG276xe[] = {
/* columns rows colors chars-per-pixel */
"32 32 22 1 ",
"  c #222222",
". c #272727",
"X c #2A2A2A",
"o c #2C2C2C",
"O c #3C3C3C",
"+ c #515151",
"@ c gray37",
"# c #656565",
"$ c gray42",
"% c #6D6D6D",
"& c #767676",
"* c gray49",
"= c #818181",
"- c gray66",
"; c gray69",
": c #C3C3C3",
"> c #C8C8C8",
", c #E2E2E2",
"< c #F4F4F4",
"1 c #F6F6F6",
"2 c gray98",
"3 c white",
/* pixels */
"33333333333333333333333333333333",
"33333333333333333333333333333333",
"3333333333333333=&&3333333333333",
"3333333333333333* X3333333333333",
"3333333333333333- O3333333333333",
"33333333,  33333- O333333  33333",
"333333331  33333- +233333  33333",
"333333332  33333;XO333333  33333",
"333333332  33333- O333333  33333",
"333333332  33333; O333333  33333",
"333333332  33333; +133333  33333",
"333333332  33333; O333333  33333",
"333333332  XXXXXX  oXXXXX  33333",
"333333331                  33333",
"333333331#%%%%%%+ o%%%%%%$@33333",
"3333333333333333- O3333333333333",
"3333333333333333; +1333333333333",
"3333333,  333333;XO233333>  3333",
"33333333  333333- O3333333  3333",
"33333333  333333; O3333333  3333",
"33333333  333333;XO3333333  3333",
"33333333  333333; O3333333  3333",
"33333333  333333; +2333333  3333",
"33333333  333333; O2333333  3333",
"33333333  333333- O3333333  3333",
"33333333        X           3333",
"33333333                    3333",
"33333333  3333333333333333  3333",
"3333333:  3333333333333333  3333",
"33333333333333333333333333333333",
"33333333333333333333333333333333",
"33333333333333333333333333333333"
};
