/* XPM */
static char *_e80135d40c14b0ef3c7c744e8cddc31mAB4jAfBusdtHmtH[] = {
/* columns rows colors chars-per-pixel */
"32 32 72 1 ",
"  c black",
". c #A69F6B",
"X c #A7A06D",
"o c #A9A26F",
"O c #ACA572",
"+ c #AFA873",
"@ c #B3AC75",
"# c #B8AF76",
"$ c #B5AE79",
"% c #B6B077",
"& c #B8B177",
"* c #B7B079",
"= c #BBB47B",
"- c #BFB87E",
"; c #C0B77C",
": c #C2B97E",
"> c #BEB781",
", c #BFB880",
"< c #C4BD82",
"1 c #C8BF84",
"2 c #C7C085",
"3 c #CAC186",
"4 c #CBC388",
"5 c #CCC389",
"6 c #CDC488",
"7 c #CCC589",
"8 c #CEC589",
"9 c #CFC68A",
"0 c #CEC78B",
"q c #CFC68C",
"w c #CFC88C",
"e c #D1C68B",
"r c #D0C78E",
"t c #D1C88C",
"y c #D2C98D",
"u c #D1C88F",
"i c #D2CB8F",
"p c #D3CB8F",
"a c #D4CA8F",
"s c #D3CB91",
"d c #D3C892",
"f c #D3CA93",
"g c #D5CA91",
"h c #D4CD91",
"j c #D7CD93",
"k c #D4CB94",
"l c #D5CC95",
"z c #D7CE94",
"x c #D8CF95",
"c c #D8CF98",
"v c #DAD196",
"b c #DBD097",
"n c #DAD197",
"m c #D8D199",
"M c #DBD198",
"N c #DBD298",
"B c #DCD399",
"V c #DDD49A",
"C c #DCD29C",
"Z c #DDD59E",
"A c #DFD69F",
"S c #E0D69C",
"D c #E0D59F",
"F c #E2D99F",
"G c #E1D6A0",
"H c #E0D7A0",
"J c #E2D9A1",
"K c #E5DBA4",
"L c #E7DEA7",
"P c #E8DFA9",
"I c #EBE1AB",
"U c #F1E6B1",
/* pixels */
"xSggMMq9ptt260<:3:::=1=@==&&>*$O",
"MSxrrze5uet32t2:<<:====#==@+++Oo",
"ACdzjVg3epu3062:<::=<=-%=-@+>++O",
"MSdguMq6tu9339:23<;-:2=&-=&&@>@o",
"ZcqseVs5pu33tt2<3:;::1=+>>>@$+OX",
"GGggzVgepu6  t:<3<:;<:=%*>@@>+oo",
"GCslzMq9j   e9<:63::<:=%>$@@+@+o",
"JZmzMZq9 093302:<<:::: &,=>@>>+O",
"JGMMVV  Mz99tu3:93::< -%,=&@*$OO",
"JCkz  se se4tt2-52<:< ==,=*+*$OO",
"JC   x9e zq3961:<3-:: %%==&$>@OO",
"KAkMMMsd u97ut1:<9<:< -===&$$@OO",
"JJkkCCld jq9eu2:33:= <===,$@$@+o",
"KJczMZss jr3ut2613:= ,-%&=$$@$Oo",
"KCzMMGkq     t3<39:: <==-=*$>$Oo",
"JScz     9u93u3:3:: <<=&=&@@+$OX",
"KJzzVCes  u96t6:22: :<==&=&+$@Oo",
"IKMMFJz  j 0tu2292: <<=%-<&$**@O",
"IZzAFAs  ju tt3<92 ::3&#=&&@@$OX",
"LJzMAJ z uu0  2232 :<:=#- &$$$Oo",
"IArMSZ v jwutp 24< :2:=#= *$@@+X",
"LAkZC jM j0utzt 91 ::<=&<= @+$+o",
"LZkZZ jx ju0tvt333 :<<==;= $>@+O",
"LZmC Suv vj9p6229 <:4==   > @>+o",
"LLM JGqk vuujp3:9      %==% @*+O",
"ULAZKZrs vj0pp329 :2<<,==,&@ @o.",
"PKkCAAzzVjuuup3293-:<,=*>=+@$$Oo",
"LKkcJAqsjju6uu2:9<-<,==*>$@@@@o.",
"IGkCGAssvuuuje1143::,<=&==$@$$O.",
"UGzKJJzrvv9uuu2133::<,,==&=@$$OO",
"LKkGGSqrVj0jtj9293::=,==>>%@$@@X",
"IKxZKc9xjj90ut3<39:=1>==*>@O=$OX"
};
