/* XPM */
static char *ca4fa41236404036843249b8c6733b433bI1uPZRezxLE9Iu[] = {
/* columns rows colors chars-per-pixel */
"32 32 75 1 ",
"  c black",
". c #A69F6B",
"X c #A7A06D",
"o c #A9A26F",
"O c #ACA572",
"+ c #AFA873",
"@ c #B3AC75",
"# c #B8AF76",
"$ c #B5AE79",
"% c #B6B077",
"& c #B8B177",
"* c #B7B079",
"= c #BBB47B",
"- c #BFB87E",
"; c #C0B77C",
": c #C2B97E",
"> c #BEB781",
", c #BFB880",
"< c #C4BD82",
"1 c #C8BF84",
"2 c #C7C085",
"3 c #CAC186",
"4 c #CCC287",
"5 c #CCC388",
"6 c #CDC488",
"7 c #CCC589",
"8 c #CEC589",
"9 c #CDC48A",
"0 c #CFC68A",
"q c #CFC78B",
"w c #CFC78C",
"e c #CFC88C",
"r c #D0C78B",
"t c #D0C68E",
"y c #D0C88C",
"u c #D2C98F",
"i c #D2CB8F",
"p c #D3CB8F",
"a c #D4CA8F",
"s c #D3C892",
"d c #D3CA93",
"f c #D5CA91",
"g c #D4CD91",
"h c #D6CD93",
"j c #D7CD93",
"k c #D7CF93",
"l c #D4CB94",
"z c #D6CC95",
"x c #D7CE94",
"c c #D8CF95",
"v c #D8CD97",
"b c #D8CF96",
"n c #D8CF98",
"m c #DAD197",
"M c #D8D199",
"N c #DBD198",
"B c #DCD399",
"V c #DDD49A",
"C c #DED59B",
"Z c #DCD29C",
"A c #DCD39C",
"S c #DED49D",
"D c #DDD59E",
"F c #DFD69F",
"G c #E0D69C",
"H c #E0D59F",
"J c #E2D99F",
"K c #E0D7A0",
"L c #E2D9A0",
"P c #E3DAA3",
"I c #E7DEA7",
"U c #E7DEA8",
"Y c #E8DFA9",
"T c #EBE1AB",
"R c #F1E6B1",
/* pixels */
"cGffNmw9u6u3662-3;::=<-#==&&>*$O",
"NGctshr9ury436<::2;====@==@+++OX",
"FZsxhVa3yae366<<3;:;:-=%=>%+>++O",
"NGsftma4yp63e6<223-;:2-%-#%&$>+O",
"FcegtVu pe436y2:<:;::3=+>>*$$$oX",
"KKsscVf pu44462213:-<-=%=,*+$$oo",
"KFsxxN 9pe636e::33::::-%=*>++$+o",
"FZNcNG rke436y2:1::::::%,>$+>>+O",
"PFxcNV umhe99h4:93::<<-%,=&+*@OO",
"PFzxmV uxse9yp2-62<:<<==,==+=$OO",
"PZnxVc sxhe6994:<3-:-<%%==&@>$OO",
"PKzNN                 -===&@$@OO",
"PFxdZ xshfe9u6::43:-<<===>&$$$+o",
"IJvvZ htmxf3uy3633:=<,-&&>@@+$Oo",
"IZxn Ft9hs939y3<41-:<<=&-=*$>+OX",
"GFcx xtuh9e93a3:31::<<=&=&$++>OX",
"IKx VVsem          -:<%*==&+*++O",
"TUNNJJhhmhf9uu32r3:-<3-#=<*$**+o",
"TFxZJFhsmhu9ue3<93:::<=#-&&@+$+X",
"TFxmFP              <<%#-=&@>$+X",
"IFgmFFucmxu9yp633<: <:=#-&*@++oX",
"TNdZNZhh fuuek  93: <<-*>>$$+>+o",
"UKdFFFhhV u9um 394= -<=%;-$$+>+O",
"UKMNPGummm 6p9 369< 9-==*=$+>$$o",
"UINZKZwsmct   3:79; ,<=%-*$@@=+X",
"RINPIKsgcmhr  9293: <<,==<&@O@O.",
"UKsZFFxgVfa uu   9=: ,-$=&@$$$OX",
"UIdMPZwgc  9uu3:9<:<  = >$@+@@X.",
"TPdZFGfs  uuh63463:-,   >=@@*$+X",
"RKxPIGgphm9yue3:43;:<--===*+*@@X",
"UPdKKZwsVhehyh6364::>-=>>>#@$@@X",
"TPxKPNwxkh6yuy3266:-<-=*$>$@$@+X"
};
