/* XPM */
static char *f8b3a294c19847f0d19e3abe34c007afQwYomRz7cICKFtpF[] = {
/* columns rows colors chars-per-pixel */
"32 32 73 1 ",
"  c #A69F6B",
". c #A7A06D",
"X c #A9A26F",
"o c #ACA572",
"O c #AFA873",
"+ c #B3AC75",
"@ c #B8AF76",
"# c #B5AE79",
"$ c #B6B077",
"% c #B8B177",
"& c #B7B079",
"* c #BBB47B",
"= c #BFB87E",
"- c #C0B77C",
"; c #C2B97E",
": c #BEB781",
"> c #BFB880",
", c #C4BD82",
"< c #C8BF84",
"1 c #C7C085",
"2 c #C9C186",
"3 c #CAC186",
"4 c #CCC186",
"5 c #CCC387",
"6 c #CCC389",
"7 c #CDC488",
"8 c #CCC589",
"9 c #CEC589",
"0 c #CEC78B",
"q c #CEC68C",
"w c #CFC68C",
"e c #CFC88C",
"r c #D0C78B",
"t c #D0C78E",
"y c #D1C88C",
"u c #D1C88F",
"i c #D3CB8F",
"p c #D4CA8F",
"a c #D3C892",
"s c #D3CA93",
"d c #D5CA91",
"f c #D4CD91",
"g c #D4CC92",
"h c #D7CD93",
"j c #D7CF93",
"k c #D4CB94",
"l c #D5CC95",
"z c #D7CE94",
"x c #D6CD96",
"c c #D8CF95",
"v c #D9D096",
"b c #DAD196",
"n c #DBD097",
"m c #DAD197",
"M c #D8D199",
"N c #DBD198",
"B c #DBD298",
"V c #DDD49A",
"C c #DCD29C",
"Z c #DCD39C",
"A c #DFD69F",
"S c #E0D69C",
"D c #E0D59F",
"F c #E2D99F",
"G c #E1D6A0",
"H c #E0D7A0",
"J c #E2D9A1",
"K c #E3DAA3",
"L c #E5DBA4",
"P c #E7DEA8",
"I c #E8DFA9",
"U c #EBE1AB",
"Y c #F1E6B1",
/* pixels */
"cSddNmt9iyy179,-5;;;*1*+-*$#*&#o",
"NSctuht5u0971y1;;1;****+*%#O+Oo.",
"ACaxcVp5yi05071;;1;*,**$*=&O>#oo",
"NSadpct5yu7440;15;--;1=$,%$&##+o",
"Ax9htVp6iy740y1,1,-;;1*+**###+o ",
"SAxtjndtiy711y;,1,;;;;%%>>&###oo",
"GCaxhmt9i0017y,;71-;1;*%*&&#+#oX",
"JANmNAr6j0544r,,;1;;;;-%>**#&#oo",
"JGMNVVaumge90i4;71;;,;=%>*&+$#oX",
"JCdxmVeejgu8yy1=511;11**>**O&#oo",
"GVNxVj9ajh95001;44=;=;$%**&+*#O.",
"LAxmmmaaha95yy,,14,;,,*$=*&#&#oo",
"JGxxZZgghg05e01=41==,,***>###+Oo",
"PJxxNAgajha4iu4511;*,=**&*#++#oX",
"PNxNNNsqgaq49u5;04;;,,*%=$*+##o.",
"AAhjNxeqjqq9404;4,*;,4*$=&#+##o.",
"LFhxVVuumii70y5;11-*;;;%%*$O$+oX",
"UPmVFFhgmji0yy3301;;,,=$=;$$&&Oo",
"UAxVFAggmju79y5-71;;;1%$=%%$O#oX",
"PAMmAAahmuu9yi3,11;;,;*%=**O>#oX",
"UVdNAAumbh0uyiy17;;;;;*%*&:#OOO.",
"UVxZCNhxbh0u9j7374;1;1*%>*#OO#OX",
"LAxNGAhjVju0yb0791*;;;;%;*##:OOO",
"PAMZGStmjmj7i71177;;7-****#o::OX",
"ULNZAAqaBjuijg1;04*=1>*$**$#O&Oo",
"YLCALAgghmg0i05104-1>,:**>&+O+X ",
"UKsZAAgxVhuaui7105=;1:*$:%+&##o.",
"PKlMFAqghhu9uu1;0==,=**$*#+O+#X ",
"UGlCAAhamh7uiy1155===,**=*#+&#o.",
"YGxKJJxejm9yiy;144=;,>>**%#+#++.",
"IPlSAAeeVhyjyb0154;;*>*::*$+#++.",
"UJxAJV9xhh99iy1450;-1>&&*:#O&#o."
};
