/* XPM */
static char *_44555f981804331a7f162470cf2cabdI5Z7C31ZKhgd824Q[] = {
/* columns rows colors chars-per-pixel */
"32 32 113 2 ",
"   c #65361F",
".  c #6B361D",
"X  c #6B381E",
"o  c #70361E",
"O  c #73381E",
"+  c #5D3621",
"@  c #653620",
"#  c #643921",
"$  c #723820",
"%  c #884B33",
"&  c #8C5A3F",
"*  c #945132",
"=  c #935038",
"-  c #94593D",
";  c #9F5D3D",
":  c #A3603D",
">  c #A9653C",
",  c #8D5B44",
"<  c #945E45",
"1  c #9E5E44",
"2  c #8F694D",
"3  c #966346",
"4  c #9D6243",
"5  c #96624A",
"6  c #9C6349",
"7  c #926A48",
"8  c #9D6A4D",
"9  c #9D6A52",
"0  c #94735F",
"q  c #9D745C",
"w  c #99785B",
"e  c #A26445",
"r  c #AC6645",
"t  c #A46B44",
"y  c #A86A43",
"u  c #A3664A",
"i  c #A46A4D",
"p  c #AC6C4D",
"a  c #B56E46",
"s  c #B36F4C",
"d  c #B4714E",
"f  c #BD784F",
"g  c #A36D53",
"h  c #AB6F51",
"j  c #A57054",
"k  c #AD7353",
"l  c #AD7A56",
"z  c #A8725B",
"x  c #A37A5E",
"c  c #B37353",
"v  c #B27A51",
"b  c #BB7D53",
"n  c #B3775A",
"m  c #B8775B",
"M  c #B37E5D",
"N  c #BC7A5B",
"B  c #9B7761",
"V  c #9F7A68",
"C  c #A07767",
"Z  c #A37C66",
"A  c #B37E62",
"S  c #C17E5A",
"D  c #AC8061",
"F  c #A6816B",
"G  c #AF836B",
"H  c #B78367",
"J  c #BC8565",
"K  c #B28369",
"L  c #BB896C",
"P  c #B38C71",
"I  c #BD8D72",
"U  c #B59075",
"Y  c #BB9277",
"T  c #BC967A",
"R  c #BC997D",
"E  c #C7865C",
"W  c #C6885F",
"Q  c #CD885A",
"!  c #C38561",
"~  c #C08967",
"^  c #C38C6D",
"/  c #C88D6C",
"(  c #D08C64",
")  c #D99468",
"_  c #C58F72",
"`  c #C59475",
"'  c #CA9374",
"]  c #C2997C",
"[  c #BD9B83",
"{  c #C39E83",
"}  c #CB9D82",
"|  c #CBA386",
" . c #C5A58C",
".. c #CFA48A",
"X. c #D6A88B",
"o. c #C0A390",
"O. c #CBAB93",
"+. c #F7ECE2",
"@. c #F4EEE8",
"#. c #F7F2EC",
"$. c #FFF9EE",
"%. c #FCF4F2",
"&. c #FDFDF6",
"*. c #F6FDFE",
"=. c #FEFBF9",
"-. c #FBFFF8",
";. c #FFFEF8",
":. c #FDFDFB",
">. c #FFFBFE",
",. c #F8FFFC",
"<. c #FBFEFD",
"1. c #FBFFFD",
"2. c white",
/* pixels */
"d s +   #   +     .   @ @ . . . . . . . . o O O O . . . . @ $ $ ",
"e i G U Y T P & ] { R R & ....{ { R & T O.O. . .t | O.O.O.{ * % ",
"e p ;.2.2.1.;.V 2.2.2.2.V 2.2.2.2.2.V 2.2.1.2.2.v =.2.;.2.>.a ; ",
"e d ;.2.2.1.2.B 2.2.2.1.B 2.2.2.2.2.q =.2.2.2.2.S 2.2.2.2.2.a r ",
"e k ;.2.2.;.1.Z ;.2.2.2.Z 2.2.2.2.2.Z 2.2.2.2.2.N 2.2.2.2.;.> = ",
"1 h ;.2.2.2.2.B 2.2.2.2.w 2.2.2.2.2.q ;.2.2.2.2.m =.2.2.2.2.1 - ",
"4 p ;.2.2.1.1.w *.2.;.2.w 2.1.2.;.;.w &.1.2.2.2.h &.>.2.2.2.: & ",
"< g + # @ # @ @ @ .   @ @ . . . @ @ . . . o o o . . . . . . h & ",
"4 k ;.2.2.2.2.L 2.2.2.2.L 2.2.2.2.2.L >.2.2.2.2.! ;.2.2.2.2.f < ",
"4 i 2.2.2.2.2.L 2.2.2.2.I 2.2.2.2.2.I ;.2.2.2.2.! ;.2.2.2.2.d 3 ",
"4 8 ;.2.1.2.2.G ;.2.2.2.K 2.2.2.2.2.K ;.2.2.2.2.M ;.2.2.2.2.s e ",
"e 3 + # # @   @ @ .     # . . . .   . . o o o . X . . . . . S u ",
"e g 1.2.1.2.*.o.1.1.2.2.o.2.1.2.2.2.o.2.2.2.1.=.^ *.2.2.&.&.y 4 ",
"6 g $.&.&.=.&.G &.;.;.=.G 2.;.;.;.;.G ;.;.;.&.2.7 2.&.&.;.2.p 6 ",
"6 g 2.2.2.1.1.H 1.2.2.>.H 2.2.2.2.2.H 1.2.2.2.2.l &.>.2.2.2.i p ",
"1 g + #   # @ @ @ .       . . . . . . . o o O O X . . . . . c p ",
"i 9 ;.2.2.2.2._ 2.2.2.2._ 2.2.2.2.2._ >.2.2.2.2.k ;.2.2.2.2.m i ",
"u x 2.2.2.1.1.^ *.2.2.&.^ 2.2.2.1.2.L 2.2.2.2.2.J 2.2.&.2.2.c u ",
"1 V 2.;.2.1.;.L 2.&.2.1.J 2.2.2.2.2.L ;.2.;.2.2.~ 2.2.1.2.2.c c ",
"e z =.2.1.&.$.D ;.2.2.1.D 2.;.2.-.-.A *.2.2.&.&.v 1.&.-.&.;.y n ",
"1 u 2.2.2.2.&.^ 2.2.2.2./ 2.2.2.2.-./ ,.2.2.2.2.l &.2.2.2.2.p 6 ",
"< C +   #   @ @   .     # . . . . . . . o . o o X . . . . . 6 i ",
"< q 1.2.2.2.2.J 1.2.2.2.J 2.2.2.1.1.J 2.2.2.2.2.M ;.2.2.2.2.i 6 ",
"6 q 1.2.2.>.&.^ 2.2.2.=.J 2.2.2.2.1.^ 2.2.2.2.2.A ;.2.2.2.2.i 6 ",
", x 1.2.2.2.%.H 1.2.2.;.H 2.2.2.2.2.H 1.1.2.1.2.z ;.2.2.2.>.i 8 ",
"5 C ;.2.2.1.%.g 2.&.&.*.g 2.;.2.;.2.g >.>.2.2.;.h 1.;.2.;.1.3 9 ",
"5 x @ @ # # @ @   .   @ # . . . .   . . . . O O . . . . . . i k ",
"4 P 1.2.2.2.%.z 2.2.2.2.z 2.2.2.2.>.z 2.2.2.2.2.M 2.2.2.2.1.p c ",
"g R 2.2.2.2.#.5 2.2.2.1.5 2.1.2.2.>.5 2.2.2.2.2.M ;.2.2.2.>.i N ",
"e P 1.2.2.2.@.n 2.2.2.1.n 2.1.2.2.>.n 2.2.2.2.2.l ;.2.2.2.2.( ( ",
"p [ ;.;.;.;.+.F ;.;.=.;.F 2.;.2.2.;.F =.1.1.*.1.F -.2.;.2.2.b ) ",
"Q 2 M Y X.} L K K } ....I ` ` ` ` L ' H I Y L A j x A Z w 0 W E "
};
