/* XPM */
static char *_d2f16fd16ef41ede9363e6b6af67c3aopLzSmSm4HmPe9s7[] = {
/* columns rows colors chars-per-pixel */
"32 32 190 2 ",
"   c #1B1C1C",
".  c #201E21",
"X  c #1F2022",
"o  c #222224",
"O  c #252826",
"+  c #26262A",
"@  c #27292D",
"#  c #2C2C2C",
"$  c #2E302D",
"%  c #30322E",
"&  c #2E2F32",
"*  c #302937",
"=  c #313333",
"-  c #353737",
";  c #3B3B3D",
":  c #413C34",
">  c #3F413C",
",  c #444139",
"<  c #514635",
"1  c #373D43",
"2  c #3F3F41",
"3  c #3E4344",
"4  c #3F444C",
"5  c #434544",
"6  c #4B4A45",
"7  c #45464A",
"8  c #47484A",
"9  c #4B4B4A",
"0  c #524F47",
"q  c #504D4A",
"w  c #4E514C",
"e  c #53514E",
"r  c #58554D",
"t  c #464E57",
"y  c #4C4E51",
"u  c #4A5153",
"i  c #545452",
"p  c #595650",
"a  c #565855",
"s  c #5C5C54",
"d  c #53555B",
"f  c #565A5B",
"g  c #5B5C5B",
"h  c #615C51",
"j  c #625E5B",
"k  c #64635D",
"l  c #6B655B",
"z  c #6B685B",
"x  c #4B5761",
"c  c #5B5D61",
"v  c #515F6F",
"b  c #5D6364",
"n  c #5E646A",
"m  c #5A6475",
"M  c #5C6D72",
"N  c #636463",
"B  c #696663",
"V  c #656966",
"C  c #6B6A66",
"Z  c #646769",
"A  c #686669",
"S  c #64696B",
"D  c #6C6C6B",
"F  c #716D67",
"G  c #726E6B",
"H  c #786D6A",
"J  c #6C716E",
"K  c #7E7464",
"L  c #73716D",
"P  c #7A746C",
"I  c #7B796F",
"U  c #656D72",
"Y  c #6B6E72",
"T  c #666F79",
"R  c #716F70",
"E  c #627272",
"W  c #6C7173",
"Q  c #63727C",
"!  c #6E737A",
"~  c #6E797B",
"^  c #737473",
"/  c #7A7673",
"(  c #757A75",
")  c #7B7975",
"_  c #737679",
"`  c #757A7C",
"'  c #7B7C7C",
"]  c #83756B",
"[  c #827C6D",
"{  c #8C7D6D",
"}  c #837C74",
"|  c #887D77",
" . c #817E7B",
".. c #8A7E79",
"X. c #84837B",
"o. c #8C857B",
"O. c #8A837C",
"+. c #928A7D",
"@. c #988B7D",
"#. c #A6937A",
"$. c #747C82",
"%. c #7B7E82",
"&. c #737D89",
"*. c #837F81",
"=. c #7D8283",
"-. c #728189",
";. c #7B838A",
":. c #738491",
">. c #7C8694",
",. c #848483",
"<. c #8A8683",
"1. c #878981",
"2. c #8B8985",
"3. c #84868A",
"4. c #868A8C",
"5. c #8D8C8B",
"6. c #948C83",
"7. c #9A8D83",
"8. c #928D8A",
"9. c #949186",
"0. c #9A9087",
"q. c #93918E",
"w. c #9C948B",
"e. c #9B998B",
"r. c #828B93",
"t. c #818994",
"y. c #8B8E92",
"u. c #879093",
"i. c #8C9194",
"p. c #879199",
"a. c #8D939B",
"s. c #939494",
"d. c #999692",
"f. c #9D9996",
"g. c #95969A",
"h. c #9B9798",
"j. c #93999B",
"k. c #9B9B9A",
"l. c #A79A8C",
"z. c #B19C88",
"x. c #A09791",
"c. c #A39993",
"v. c #A89B97",
"b. c #A29D9A",
"n. c #AB9F98",
"m. c #A9A096",
"M. c #A5A09B",
"N. c #8C95A3",
"B. c #8E98A3",
"V. c #949CA3",
"C. c #9C9EA1",
"Z. c #959EAB",
"A. c #9CA2A5",
"S. c #95A0AB",
"D. c #9CA4AC",
"F. c #8EA2B2",
"G. c #96A3B1",
"H. c #9AA4B5",
"J. c #9DA9B5",
"K. c #97AAB9",
"L. c #9CA9BB",
"P. c #A3A3A4",
"I. c #A9A4A3",
"U. c #ADAAA5",
"Y. c #A2A5AA",
"T. c #A6ABAC",
"R. c #ACACAD",
"E. c #B0ABAD",
"W. c #BBB1A6",
"Q. c #BDB7AD",
"!. c #A3ACB5",
"~. c #ABAEB3",
"^. c #A1A9B8",
"/. c #ACB1B4",
"(. c #A7B1BA",
"). c #ADB3BA",
"_. c #B1B3B3",
"`. c #B8B6B8",
"'. c #B3B8BC",
"]. c #BCBBBB",
"[. c #ACB5C1",
"{. c #B4BAC4",
"}. c #B6C1C9",
"|. c #BBC1C8",
" X c #B9C6D7",
".X c #C8C8C6",
"XX c #CEC8C6",
"oX c #C3C5CA",
"OX c #C7CACF",
"+X c #C3CCD2",
/* pixels */
"5 , w 9 e s i g = e.n.6.O.O.2.c.W.I o.@.c }.8. .X.d.S k.T }.v :.",
"4.' L W Z 4.@   = M.w.6.w.8.c.XXW.6...v.I.9 9.e.o.5.X.8.S.p.-.Z.",
"=.' D N L y.' ,.i b.+.O./ N ~.N ..@.@.7.{ g C O.P <.) C oXB.U J.",
",.J b L ^ 1.' D i n.6.+.K O.+...) } #.z.l.*.3.m G.J.G. XK.I.E >.",
") 4.( w B k.y.' * l.+.7.c.c.8.7.O.[ 6.{ #.^ Y D.V.j.H.F.K.X.V.:.",
"2.L k k X.s.A.h.# P 7.7.j } q o.w.] | ] z.I.V.L.^.a.Z.>.B.e.:.~ ",
"N 2.e X.<.k.,.5.d | K ] 7.| <.H * u y.S.T.Q D.Z M  XK.S.4 S '.|.",
",.,./ L D ( X.C.# / w.H P +.d.6.A.s.T.P.D.{.%.t.y.3.r.u.3 J.S.s.",
") ( C <.D 8.' ) + j C / 2. .d.G y.2.3.' 7 ~ =.T Z.j.(.;.3 T.i.R.",
" .J / / / L Y W # X.B P / ) 8.*.j g .XO.$.V.;.D _ r.W d E u.` 3.",
"D a D ) V D N 1 - F 5.C 6. ./ 8.b.j e.d.M U ' a.d o ; `.D x W ~ ",
"        # 2   C / 5.} ,.8.<./ ,.b c N.(.}.V.' U.l q.s.5.=.;._ b ",
"p - b x Z t.. D / 8.d.O.,.<.I.M.v.OX~.Y.'.A.A.j.o   E.`.( 7 &.u.",
"<.6 5.*.d.P.c.F / R.f.E.P.5. .k B + Z.s.A.C.4.j.c 4.4.S.D.S.!.a.",
"<.s } h.,.k.d.d.; C d.k.<.I.b.<.0.] t.I.k.P.A.' i ;.a.D.T.L.).D.",
"B j # I.I.Y.)./.T.) i - 1 ; . @ 2 . &.( L i.,.Y.i.V.=.(.[.p.;.u ",
"C r # ' k.b.H.V.a.3.<.h.2.O._.N C.@ Y.d. .1.' =.J j.V f i.` r.~.",
"6.H j [ 5.g.A r.%.,.' / / f.f.D  .. P.,. .( s.` n W V N V n >._.",
" .<.} k 5.4.g G B L ^ 2.L d.%.G s.. ` ( s L D 9 5 s U.b.m.M.b _.",
"N ' h i  .s.N G g D R Y ' =.,.g , ; $ % 6 ^ n.6.l.f.q.R.U._.A.OX",
"R R < k N D ) D g N ` ^ D ,.5.i k I.e w.q.6.O.H I.o.I f.[ J ` R.",
"} : g ; G %.j ^ N ^ A Y Y _ s.5 N 1.j q.h.' ' ^ ( 2.I F z z s.i.",
"6 ] x.d 6 B F ' G ,.G ' s.d.M.# 6 # 7.X.L C B X.k P I = 0 Q.Z & ",
"h l | 8 @ ; # . 5 ' 8 8 i V q.C G s h z l # a _ p.N.j.].a f ~.j.",
"q H o.l 9 g Y.oX{.P.g.g.6.6 3.4._.R.i ,.g.J.!.+XJ.;.d +XD.j.j.A.",
"C D G : ' 3.y.V.y.y.s.P.Z.a.B._ =.C.I.P.a.C.A.W Y.~.=.j.i.s.3.=.",
"k l L G d %.'.a.! Z ' _ g.$.Y.=.S D.j.g.t.{.'.p.V.V.s.=.%.=.` C.",
"B j P H %.Y ' D ` c S J Y ` y 9 ' ^ D =.X 4.i.;.V.%.i.s.u.( b ) ",
"p p } # d k.` %.oXZ D O D f.2.` /.D.T.k.; A.k.B.u.7 U C.j.u.( b ",
"# ; 5 t U %.Y %.=.D %.# f.R.X.P.A.Y.g.3.= p.3.3.c 9 _ X.s.R.a E ",
"1 5 m &.3.Y _ ^ =.s.( 4.q.k.+ A.V.3.3.3.> J D.V _ ( b ~ E ( A.~ ",
"c d 7 b %.;.D R A 3.^ =.5.k.# C.4.%.' s.g N i w s D E n X.4.i.u."
};
