/* XPM */
static char *_24c4113d54747babc78688ea4239adaVc0YlxjydYOd1pFJ[] = {
/* columns rows colors chars-per-pixel */
"32 32 34 1 ",
"  c #222222",
". c gray14",
"X c #2D2D2D",
"o c gray20",
"O c #373737",
"+ c #3C3C3C",
"@ c gray25",
"# c #464646",
"$ c #484848",
"% c gray31",
"& c #535353",
"* c #5D5D5D",
"= c #606060",
"- c #6F6F6F",
"; c #7B7B7B",
": c gray53",
"> c #8B8B8B",
", c #8E8E8E",
"< c #9B9B9B",
"1 c #A7A7A7",
"2 c #AFAFAF",
"3 c #B4B4B4",
"4 c gray73",
"5 c gray75",
"6 c #CDCDCD",
"7 c #D7D7D7",
"8 c #D8D8D8",
"9 c gray88",
"0 c #E4E4E4",
"q c #ECECEC",
"w c gray94",
"e c gray97",
"r c #FBFBFB",
"t c white",
/* pixels */
"tttttttttttttttttttttttttttttttt",
"tttttttt>  ttttttttttttttttttttt",
"tttttttt  *ttttttttttttttttttttt",
"ttttttt6  tttttttttttttttt8ttttt",
"ttttttt                    ttttt",
"tttttt%                    ttttt",
"ttttt9  7ttttttttttttttttttttttt",
"tttte  +wtttttttttttttte0ttttttt",
"tttt   t                 ttttttt",
"ttt   tt  . ...........  ttttttt",
"tttt ttttttttttttttttttttttttttt",
"tttttttttttttttttttttttttttttttt",
"tttt,                   tttttttt",
"tttt,                   tttttttt",
"tttttttttttttttt$ttttq  tttttttt",
"ttttttte wtttttr  $tte  tttttttt",
"ttttttt   @tttt   tttt  tttttttt",
"tttttttt& . 9tO  ttttt  tttttttt",
"tttttttttt  ..  1ttttt  tttttttt",
"ttttttttttt-   =tttttt  wttttttt",
"tttttttttttO    3ttttt  5tt wttt",
"tttttttttt   ;.  $ttttX Xtw Xttt",
"tttttttt=   6tt#  .tttt  t2 @ttt",
"tttttt<    rtttt>   ttt  ;O 3ttt",
"tttt&    :ttttttt4  <tt>    tttt",
"ttttX  otttttttttt3*tttt    tttt",
"ttttt+ttttttttttttttttttt%.ttttt",
"tttttttttttttttttttttttttttttttt",
"tttttttttttttttttttttttttttttttt",
"tttttttttttttttttttttttttttttttt",
"tttttttttttttttttttttttttttttttt",
"tttttttttttttttttttttttttttttttt"
};
