/* XPM */
static char *_fb084c9e699465fcac9a0770f1c500bPnTxGFpbNtCcHELS[] = {
/* columns rows colors chars-per-pixel */
"32 32 32 1 ",
"  c #222222",
". c #272727",
"X c gray17",
"o c #2F2F2F",
"O c #373737",
"+ c #3A3A3A",
"@ c #3E3E3E",
"# c gray25",
"$ c #444444",
"% c gray33",
"& c gray36",
"* c #5D5D5D",
"= c gray42",
"- c #6D6D6D",
"; c #797979",
": c #888888",
"> c gray54",
", c #8D8D8D",
"< c #9A9A9A",
"1 c #AAAAAA",
"2 c gray69",
"3 c #C1C1C1",
"4 c #CDCDCD",
"5 c #D0D0D0",
"6 c #D5D5D5",
"7 c #E2E2E2",
"8 c #EAEAEA",
"9 c #ECECEC",
"0 c gray94",
"q c #F4F4F4",
"w c gray98",
"e c white",
/* pixels */
"eeeeeeeeeeeeeeeeeeeeeeeeeeeeeeee",
"eeeeeeeeeeeeeeeeeeeeeeeeeeeeeeee",
"eeeeeeeeeeeeee.+eeeee0eeeeeeeeee",
"eeeeeeeeeee,    qeeee  eeeeeeeee",
"eeeeeew*       eeeee3  eeeeeeeee",
"eeeeeX      8eeeeeee@  eeeeeeeee",
"eeeeee O6e  eeeeeeee  @eeeeeeeee",
"eeeeeeeeee  eeeeeeee  0eeeeeeeee",
"eeeeeeeeee  eeeeeeee  eeeeeeeeee",
"eeeee#;>>>  >>>-%ee6  eeeeeeeeee",
"eeeee           @ee@  eeeeeeeeee",
"eeeee           @ee  1eeeeeeeeee",
"eeeeeeeee   .eeeeee  eeeeeeeeeee",
"eeeeeeeee    eeeeeq  eee eeeeeee",
"eeeeeeeeo     eeee#..ee   eeeeee",
"eeeeeeee    8  eee  4eee  eeeeee",
"eeeeeee..0  e   ee  eeee. .eeeee",
"eeeeeee  e  ee  e6  eeeee  eeeee",
"eeeeee  5e  eee=e. %eeeee  *eeee",
"eeeee   ee  eeeee  eeeeee8  eeee",
"eeeeo  eee  eeeee  eeeeeee  8eee",
"eeeee -eee  eeee. .eeeeeeeO  eee",
"eeeeeoeeee  eeee  0eeeeee9#. eee",
"eeeeeeeeee  eeew  e<$        2ee",
"eeeeeeeeee  e7            -+  ee",
"eeeeeeeeee  ee      $7eeeeee  ee",
"eeeeeeeeee  ee5eeeeeeeeeeeee 1ee",
"eeeeeeeeee  eeeeeeeeeeeeeeeeeeee",
"eeeeeeeeeeeeeeeeeeeeeeeeeeeeeeee",
"eeeeeeeeeeeeeeeeeeeeeeeeeeeeeeee",
"eeeeeeeeeeeeeeeeeeeeeeeeeeeeeeee",
"eeeeeeeeeeeeeeeeeeeeeeeeeeeeeeee"
};
